<svg xmlns="http://www.w3.org/2000/svg" viewBox="0 0 256 256" stroke="#333" stroke-width="2" stroke-linecap="round" stroke-linejoin="round">
	<linearGradient id="gradient" x1="0" y1="0" x2="1" y2="1">
		<stop offset="16.67%" stop-color="#ffc" />
		<stop offset="16.67%" stop-color="#fcc" />
		<stop offset="33.33%" stop-color="#fcc" />
		<stop offset="33.33%" stop-color="#fcf" />
		<stop offset="50.00%" stop-color="#fcf" />
		<stop offset="50.00%" stop-color="#ccf" />
		<stop offset="66.67%" stop-color="#ccf" />
		<stop offset="66.67%" stop-color="#cff" />
		<stop offset="83.33%" stop-color="#cff" />
		<stop offset="83.33%" stop-color="#cfc" />
	</linearGradient>
	<symbol id="letter-." viewBox="0 0 12 32">
		<path d="
			M6,26
			L6,26
		" />
	</symbol>
	<symbol id="letter-t" viewBox="0 0 16 32">
		<path d="
			M10,26
			Q6,26,6,22
			L6,6
			M6,12
			L10,12
		" />
	</symbol>
	<symbol id="letter-i" viewBox="0 0 12 32">
		<path d="
			M6,26
			L6,11
			M6,6
			L6,6
		" />
	</symbol>
	<symbol id="letter-g" viewBox="0 0 20 40">
		<path d="
			M6,14
			Q6,10,10,10
			Q14,10,14,14
			L14,22
			Q14,26,10,26
			Q6,26,6,22
			L6,14
			M14,10
			L14,14
			M14,22
			L14,30
			Q14,34,10,34
			Q6,34,6,30
		" />
	</symbol>
	<symbol id="letter-e" viewBox="0 0 20 32">
		<path d="
			M14,22
			Q14,26,10,26
			Q6,26,6,22
			L6,14
			Q6,10,10,10
			Q14,10,14,14
			Q14,18,10,18
			Q6,18,6,22
		" />
	</symbol>
	<symbol id="letter-r" viewBox="0 0 20 32">
		<path d="
			M6,26
			L6,14
			Q6,10,10,10
			Q14,10,14,14
			M6,14
			L6,10
		" />
	</symbol>
	<symbol id=".tiger" viewBox="0 0 64 40">
		<use href="#letter-." x="0" y="0" width="12" height="32" />
		<use href="#letter-t" x="4" y="0" width="16" height="32" />
		<use href="#letter-i" x="13" y="0" width="12" height="32" />
		<use href="#letter-g" x="18" y="0" width="20" height="40" />
		<use href="#letter-e" x="31" y="0" width="20" height="32" />
		<use href="#letter-r" x="44" y="0" width="20" height="32" />
	</symbol>
	<rect x="32" y="32" width="192" height="192" rx="32" ry="32" fill="url(#gradient)" stroke-width="8" />
	<rect x="64" y="96" width="128" height="64" rx="8" ry="8" fill="#3333" stroke="none" />
	<use href="#.tiger" x="64" y="96" width="128" height="80" fill="none" stroke-width="4" />
</svg>
